<svg width="370" height="74" viewBox="0 0 370 74" fill="none" xmlns="http://www.w3.org/2000/svg">
<path d="M16.5926 55.8662C13.6487 55.8662 10.638 55.5317 7.62724 54.7957C4.54958 54.0597 2.00717 53.1231 0 51.9188L0.401434 41.0131H1.2043L3.67981 46.2318C4.41577 47.7037 5.21864 49.0418 6.08841 50.1792C6.95818 51.3166 8.09558 52.2533 9.63441 52.8554C10.7049 53.3907 11.7085 53.7252 12.7121 53.9259C13.7157 54.1266 14.7861 54.1936 16.0573 54.1936C19.3357 54.1936 21.8781 53.3238 23.8184 51.5173C25.6918 49.7778 26.6953 47.503 26.6953 44.693C26.6953 42.0836 26.0263 40.0096 24.7551 38.5376C23.4839 37.0657 21.4098 35.6607 18.5998 34.2557L15.3214 32.7838C10.7049 30.7766 7.092 28.4349 4.54958 25.7587C2.00717 23.0824 0.535245 19.7372 0.535245 15.3214C0.535245 12.1768 1.27121 0 1.27121 0C1.27121 0 6.89128 3.07766 9.83513 1.87336C12.779 0.669056 16.1912 0 20.0717 0C22.8817 0 25.6249 0.401434 28.1673 1.1374C30.7097 1.87336 32.9176 2.87694 34.7909 4.21505L34.3226 13.8495H33.5197L30.2413 7.82796C29.3047 5.9546 28.4349 4.61649 27.4982 3.88053C26.5615 3.07766 25.5579 2.54241 24.3536 2.20789C23.6846 2.00717 23.0155 1.87336 22.4134 1.73955C21.8112 1.67264 21.0753 1.60573 20.1386 1.60573C17.3955 1.60573 15.1207 2.4086 13.2473 3.94743C11.374 5.55317 10.4373 7.62724 10.4373 10.3035C10.4373 12.9797 11.1732 15.1876 12.5783 16.8602C14.0502 18.466 16.1243 19.9379 18.9343 21.2091L22.6141 22.8148C27.7658 25.0896 31.4456 27.4313 33.7204 29.9737C35.9952 32.5161 37.0657 35.7945 37.0657 39.8088C37.0657 44.4922 35.2593 48.3728 31.7133 51.3166C28.1673 54.2605 23.0824 55.7993 16.5926 55.7993V55.8662Z" fill="#F2D858"/>
<path d="M66.3035 55.8662C63.0251 55.8662 59.8806 55.2641 56.8698 54.1267C53.8591 52.9893 51.1159 51.1828 48.7742 48.8412C46.4325 46.4995 44.4923 43.6225 43.0873 40.1434C41.6822 36.6643 41.0132 32.5831 41.0132 27.9666C41.0132 23.3501 41.6822 19.3358 43.0873 15.8567C44.4923 12.3776 46.3656 9.50065 48.7742 7.15895C51.1828 4.81726 53.926 3.07771 56.9367 1.87341C59.9475 0.669106 63.092 0.0669556 66.3035 0.0669556C69.515 0.0669556 72.7264 0.669106 75.7372 1.8065C78.7479 2.9439 81.4911 4.68344 83.8328 7.02514C86.2414 9.36684 88.1147 12.2438 89.5198 15.7898C90.9248 19.3358 91.5938 23.3501 91.5938 28.0335C91.5938 32.7169 90.9248 36.5974 89.5198 40.1434C88.1147 43.6894 86.2414 46.5664 83.8328 48.9081C81.4242 51.2498 78.7479 52.9893 75.7372 54.1936C72.7264 55.3979 69.5819 56 66.3035 56V55.8662ZM66.3035 54.1936C69.2474 54.1936 71.656 53.3907 73.4624 51.8519C75.2689 50.2462 76.607 47.5699 77.4098 43.7563C78.2127 39.9427 78.681 34.6572 78.681 27.9666C78.681 21.276 78.2796 15.9236 77.4098 12.11C76.607 8.29635 75.2689 5.55322 73.4624 4.01439C71.656 2.47556 69.2474 1.67269 66.3035 1.67269C63.3597 1.67269 61.0849 2.47556 59.2115 4.01439C57.3382 5.55322 56.0669 8.29635 55.2641 12.11C54.4612 15.9236 53.9929 21.2091 53.9929 27.9666C53.9929 34.7241 54.3943 39.9427 55.2641 43.7563C56.0669 47.5699 57.4051 50.3131 59.2115 51.8519C61.018 53.4576 63.3597 54.1936 66.3035 54.1936Z" fill="#F2D858"/>
<path d="M124.477 55.4771C121.554 55.4771 118.564 55.1449 115.574 54.414C112.518 53.6832 109.993 52.7531 108 51.5571L108.399 40.7275H109.196L111.654 45.9098C112.385 47.3714 113.182 48.7002 114.046 49.8297C114.91 50.9592 116.039 51.8893 117.567 52.4873C118.63 53.0188 119.627 53.351 120.624 53.5503C121.62 53.7496 122.683 53.8161 123.946 53.8161C127.201 53.8161 129.726 52.9524 131.653 51.1585C133.513 49.4311 134.509 47.1721 134.509 44.3817C134.509 41.7905 133.845 39.7309 132.583 38.2692C131.32 36.8075 129.261 35.4123 126.47 34.0171L123.215 32.5554C118.63 30.5622 115.043 28.2368 112.518 25.5792C109.993 22.9217 108.532 19.5997 108.532 15.2147C108.532 12.092 109.329 9.36799 110.99 7.10904C112.584 4.85009 114.843 3.05622 117.767 1.86031C120.69 0.664396 124.078 0 127.932 0C130.722 0 133.446 0.398638 135.971 1.12947C138.496 1.86031 140.688 2.8569 142.549 4.1857L142.084 13.753H141.286L138.031 7.77343C137.101 5.91313 136.237 4.58433 135.307 3.8535C134.377 3.05622 133.38 2.52471 132.184 2.19251C131.52 1.99319 130.855 1.86031 130.257 1.72743C129.659 1.66099 128.928 1.59455 127.998 1.59455C125.274 1.59455 123.015 2.39183 121.155 3.91994C119.295 5.51449 118.365 7.57412 118.365 10.2317C118.365 12.8893 119.095 15.0818 120.491 16.7428C121.952 18.3373 124.012 19.799 126.802 21.0614L130.457 22.6559C135.572 24.9149 139.227 27.2402 141.486 29.7649C143.745 32.2896 144.808 35.5452 144.808 39.5316C144.808 44.1823 143.014 48.0358 139.492 50.9592C135.971 53.8825 130.922 55.4106 124.477 55.4106V55.4771Z" fill="#F2D858"/>
<path d="M158.295 54.0815V53.2842L161.55 52.487C163.743 52.0219 164.806 50.6931 164.806 48.5006V3.05589H158.029C156.036 3.05589 154.641 3.5874 153.777 4.584C152.913 5.64703 152.049 7.04226 151.053 8.83613L148.196 14.4171H147.399L147.797 1.3949H193.774L194.106 14.4171H193.308L190.452 8.83613C189.521 7.04226 188.658 5.58059 187.794 4.584C186.93 3.52097 185.535 3.05589 183.542 3.05589H176.765V48.5006C176.765 50.6931 177.828 52.0219 180.021 52.487L183.276 53.2842V54.0815H158.162H158.295Z" fill="#F2D858"/>
<path d="M222.077 55.4767C218.024 55.4767 214.436 54.7459 211.38 53.3507C208.257 51.889 205.865 49.6301 204.138 46.5074C202.411 43.3847 201.547 39.2655 201.547 34.2161V6.71007C201.547 4.71688 200.484 3.38809 198.424 2.72369L196.697 2.25861V1.46134H218.755V2.25861L216.429 2.92301C214.436 3.38809 213.506 4.71688 213.506 6.90938V36.3421C213.506 41.2587 214.569 44.9128 216.629 47.3047C218.688 49.6965 221.678 50.826 225.532 50.826C229.385 50.826 232.773 49.5636 235.165 47.1054C237.557 44.5806 238.687 41.0593 238.687 36.475V7.17514C238.687 6.11211 238.487 5.18196 238.155 4.31824C237.823 3.52096 237.092 2.92301 236.029 2.65725L234.036 2.19217V1.3949H245.198V2.19217L243.072 2.72369C242.075 2.92301 241.411 3.45453 241.078 4.2518C240.746 5.04908 240.613 5.97923 240.613 7.04226V36.2093C240.613 40.0627 239.816 43.4512 238.288 46.3745C236.76 49.2979 234.567 51.4904 231.843 53.0849C229.053 54.6795 225.864 55.4103 222.143 55.4103L222.077 55.4767Z" fill="#F2D858"/>
<path d="M247.191 54.0815V53.2842L248.852 52.6198C250.58 51.9554 251.377 50.5602 251.377 48.567V6.90938C251.377 4.78332 250.513 3.45453 248.852 2.85657L247.191 2.19217V1.3949H268.252C273.9 1.3949 278.75 2.45793 282.803 4.51756C286.856 6.64363 289.978 9.63341 292.237 13.5533C294.43 17.4733 295.559 22.1241 295.559 27.6385C295.559 33.153 294.363 38.0031 291.971 41.9231C289.58 45.843 286.258 48.8328 281.939 50.9588C277.687 53.0185 272.637 54.0815 266.857 54.0815H247.258H247.191ZM263.402 52.487H266.857C270.711 52.487 273.767 51.7561 276.092 50.228C278.418 48.6999 280.145 46.1752 281.208 42.5875C282.271 38.9997 282.869 34.0832 282.869 27.7714C282.869 21.4597 282.338 16.5431 281.208 12.9554C280.079 9.36765 278.418 6.84295 276.159 5.31483C273.9 3.78672 270.844 3.05589 267.123 3.05589H263.402V52.487Z" fill="#F2D858"/>
<path d="M296.954 54.0815V53.2842L298.549 52.6198C299.612 52.2212 300.343 51.7561 300.675 51.0917C301.007 50.4273 301.206 49.6301 301.206 48.567V6.90938C301.206 5.84635 301.074 4.98264 300.741 4.38468C300.409 3.72028 299.678 3.25521 298.615 2.85657L297.021 2.19217V1.3949H317.484V2.19217L315.89 2.85657C314.827 3.25521 314.096 3.72028 313.763 4.38468C313.431 5.04908 313.232 5.84635 313.232 6.90938V48.5006C313.232 49.5636 313.431 50.4273 313.763 51.0253C314.096 51.6232 314.827 52.1548 315.89 52.5534L317.484 53.2178V54.0151H297.021L296.954 54.0815Z" fill="#F2D858"/>
<path d="M344.525 55.4771C341.27 55.4771 338.147 54.8792 335.157 53.7497C332.167 52.6202 329.443 50.8263 327.118 48.5009C324.792 46.1756 322.866 43.3187 321.471 39.8638C320.075 36.4089 319.411 32.3561 319.411 27.7718C319.411 23.1875 320.075 19.2011 321.471 15.7462C322.866 12.2914 324.726 9.43445 327.118 7.10907C329.51 4.78368 332.234 3.05625 335.224 1.86034C338.213 0.664424 341.336 0.0664673 344.525 0.0664673C347.714 0.0664673 350.903 0.664424 353.893 1.7939C356.883 2.92337 359.607 4.6508 361.932 6.97619C364.324 9.30157 366.184 12.1585 367.58 15.6798C368.975 19.2011 369.639 23.1875 369.639 27.8382C369.639 32.489 368.975 36.3425 367.58 39.8638C366.184 43.3851 364.324 46.242 361.932 48.5674C359.54 50.8928 356.883 52.6202 353.893 53.8161C350.903 55.012 347.781 55.61 344.525 55.61V55.4771ZM344.525 53.8161C347.448 53.8161 349.84 53.0188 351.634 51.4907C353.428 49.8962 354.757 47.2386 355.554 43.4515C356.351 39.6645 356.816 34.4157 356.816 27.7718C356.816 21.1278 356.418 15.8127 355.554 12.0256C354.757 8.23854 353.428 5.51452 351.634 3.9864C349.84 2.45829 347.448 1.66102 344.525 1.66102C341.602 1.66102 339.343 2.45829 337.482 3.9864C335.622 5.51452 334.36 8.23854 333.563 12.0256C332.765 15.8127 332.3 21.0614 332.3 27.7718C332.3 34.4822 332.699 39.6645 333.563 43.4515C334.36 47.2386 335.689 49.9626 337.482 51.4907C339.276 53.0853 341.602 53.8161 344.525 53.8161Z" fill="#F2D858"/>
<path d="M116.174 62.4575L109.085 62.9033L105.772 69.2118C104.908 70.8431 102.529 70.684 101.874 68.9784L99.257 62.3212L92.1906 61.0999C90.3705 60.7996 89.7886 58.5153 91.2053 57.3535L96.6926 52.8248L95.7027 45.7615C95.4588 43.9667 97.4343 42.6638 99.0018 43.6613L104.988 47.4746L111.406 44.3334C113.06 43.5308 114.849 45.0032 114.433 46.8088L112.665 53.7356L117.617 58.853C118.909 60.1685 118.021 62.3613 116.241 62.4894L116.174 62.4575Z" fill="#F2545B"/>
</svg>
