<svg width="185" height="185" viewBox="0 0 185 185" fill="none" xmlns="http://www.w3.org/2000/svg">
<path d="M159.698 98.626L129.274 113.442L126.115 147.242C125.264 155.997 114.494 159.609 108.517 153.282L84.917 128.696L51.5695 136.127C43.0058 138.103 36.3007 129.094 40.4362 121.407L56.4017 91.5057L39.2344 62.1809C34.9062 54.7155 41.2477 45.3935 49.9623 46.9466L83.2516 52.8936L105.831 27.4189C111.662 20.8847 122.217 24.1273 123.657 32.8365L128.425 66.5605L159.519 80.1291C167.598 83.5827 167.659 94.8543 160.049 98.646L159.698 98.626Z" fill="#297373"/>
<path d="M90.5285 121.739C87.4425 121.739 84.2863 121.388 81.1301 120.616C77.9038 119.845 75.2386 118.863 73.1345 117.6L73.5553 106.168H74.397L76.9921 111.639C77.7636 113.182 78.6052 114.585 79.517 115.777C80.4288 116.969 81.6211 117.951 83.2342 118.582C84.3564 119.143 85.4085 119.494 86.4605 119.705C87.5126 119.915 88.6348 119.985 89.9674 119.985C93.4041 119.985 96.0693 119.073 98.1033 117.18C100.067 115.356 101.119 112.971 101.119 110.026C101.119 107.29 100.418 105.116 99.0852 103.573C97.7526 102.03 95.5784 100.557 92.6326 99.0843L89.1959 97.5413C84.3564 95.4372 80.569 92.9824 77.9038 90.1769C75.2386 87.3714 73.6956 83.8646 73.6956 79.2356C73.6956 75.9391 74.4671 63.1742 74.4671 63.1742C74.4671 63.1742 80.3586 66.4005 83.4447 65.138C86.5307 63.8756 90.1077 63.1742 94.1756 63.1742C97.1214 63.1742 99.997 63.595 102.662 64.3665C105.327 65.138 107.642 66.1901 109.606 67.5928L109.115 77.6925H108.273L104.836 71.3802C103.855 69.4164 102.943 68.0136 101.961 67.2421C100.979 66.4005 99.9268 65.8394 98.6644 65.4887C97.963 65.2783 97.2616 65.138 96.6304 64.9978C95.9992 64.9276 95.2277 64.8575 94.2458 64.8575C91.3701 64.8575 88.9855 65.6991 87.0216 67.3123C85.0578 68.9956 84.0759 71.1698 84.0759 73.9753C84.0759 76.7808 84.8474 79.0953 86.3203 80.8487C87.8633 82.532 90.0375 84.075 92.9833 85.4076L96.8408 87.0909C102.241 89.4756 106.099 91.9304 108.484 94.5956C110.868 97.2608 111.99 100.697 111.99 104.906C111.99 109.815 110.097 113.883 106.379 116.969C102.662 120.055 97.3318 121.668 90.5285 121.668V121.739Z" fill="#FF8552"/>
<path d="M142.64 121.739C139.204 121.739 135.907 121.107 132.751 119.915C129.595 118.723 126.719 116.829 124.264 114.374C121.81 111.919 119.776 108.904 118.303 105.256C116.83 101.609 116.129 97.3309 116.129 92.4915C116.129 87.652 116.83 83.4438 118.303 79.7967C119.776 76.1496 121.739 73.1337 124.264 70.6789C126.789 68.2241 129.665 66.4005 132.821 65.1381C135.977 63.8756 139.274 63.2444 142.64 63.2444C146.007 63.2444 149.373 63.8756 152.53 65.0679C155.686 66.2602 158.561 68.0838 161.016 70.5386C163.541 72.9934 165.505 76.0093 166.978 79.7265C168.451 83.4438 169.152 87.652 169.152 92.5616C169.152 97.4712 168.451 101.539 166.978 105.256C165.505 108.974 163.541 111.99 161.016 114.444C158.491 116.899 155.686 118.723 152.53 119.985C149.373 121.248 146.077 121.879 142.64 121.879V121.739ZM142.64 119.985C145.726 119.985 148.251 119.144 150.145 117.53C152.039 115.847 153.441 113.042 154.283 109.044C155.125 105.046 155.616 99.5052 155.616 92.4915C155.616 85.4778 155.195 79.8668 154.283 75.869C153.441 71.8712 152.039 68.9956 150.145 67.3824C148.251 65.7693 145.726 64.9276 142.64 64.9276C139.554 64.9276 137.17 65.7693 135.206 67.3824C133.242 68.9956 131.909 71.8712 131.068 75.869C130.226 79.8668 129.735 85.4076 129.735 92.4915C129.735 99.5753 130.156 105.046 131.068 109.044C131.909 113.042 133.312 115.917 135.206 117.53C137.099 119.214 139.554 119.985 142.64 119.985Z" fill="#FF8552"/>
</svg>
